<svg xmlns="http://www.w3.org/2000/svg" fill="currentColor" viewBox="3 3 18 18">
  <rect x="5.315" y="6.538" width="13.989" height="11.228" style="paint-order: stroke; fill-rule: nonzero; stroke: rgb(255, 255, 255); fill: rgb(255, 255, 255);" transform="matrix(1, 0, 0, 1, 4.440892098500626e-16, 0)"/>
  <path d="M6.25 3A3.25 3.25 0 0 0 3 6.25v11.5C3 19.55 4.46 21 6.25 21h11.5c1.8 0 3.25-1.46 3.25-3.25V6.25C21 4.45 19.54 3 17.75 3H6.25Zm4.28 6.28L7.81 12l2.72 2.72a.75.75 0 1 1-1.06 1.06l-3.25-3.25a.75.75 0 0 1 0-1.06l3.25-3.25a.75.75 0 1 1 1.06 1.06Zm4-1.06 3.25 3.25c.3.3.3.77 0 1.06l-3.25 3.25a.75.75 0 1 1-1.06-1.06L16.19 12l-2.72-2.72a.75.75 0 0 1 1.06-1.06Z" style="fill: rgb(255, 134, 7);" transform="matrix(1, 0, 0, 1, 4.440892098500626e-16, 0)"/>
</svg>